<?xml version="1.0" encoding="UTF-8"?> <svg xmlns="http://www.w3.org/2000/svg" viewBox="0 0 95.43 16.05"> <defs> <style>.cls-1{fill:#fbc805;}</style> </defs> <title>Ресурс 4</title> <g id="Слой_2" data-name="Слой 2"> <g id="Слой_1-2" data-name="Слой 1"> <path class="cls-1" d="M16.2,15.71h-4L11.81,15a8.17,8.17,0,0,1-2.5.84,8.84,8.84,0,0,1-2.64,0,8,8,0,0,1-2.52-.78A7.76,7.76,0,0,1,2,13.55,7,7,0,0,1,.55,11.17,8.71,8.71,0,0,1,0,8a8.6,8.6,0,0,1,.68-3.5A6.94,6.94,0,0,1,2.48,2,8.09,8.09,0,0,1,5,.52a8.37,8.37,0,0,1,5.8,0A8.1,8.1,0,0,1,13.36,2a7,7,0,0,1,1.8,2.52A8.61,8.61,0,0,1,15.85,8a8.33,8.33,0,0,1-1.24,4.57l1.59,2.63ZM4.06,8a4.83,4.83,0,0,0,.33,1.83,3.66,3.66,0,0,0,.87,1.32A3.87,3.87,0,0,0,6.5,12a3.81,3.81,0,0,0,2.85,0,3.87,3.87,0,0,0,1.24-.78,3.67,3.67,0,0,0,.87-1.32A4.83,4.83,0,0,0,11.79,8a4.66,4.66,0,0,0-.43-2,3.38,3.38,0,0,0-1.1-1.36,4.82,4.82,0,0,0-1.5-.68,3.16,3.16,0,0,0-1.66,0,4.81,4.81,0,0,0-1.5.68A3.38,3.38,0,0,0,4.49,6,4.65,4.65,0,0,0,4.06,8Z"></path> <path class="cls-1" d="M22.34,11.89a2.81,2.81,0,0,0,1.66.5,2.75,2.75,0,0,0,1.64-.5,1.6,1.6,0,0,0,.7-1.38V.27H30.1V10.57a4.77,4.77,0,0,1-1.8,3.91A6.64,6.64,0,0,1,24,15.94a6.7,6.7,0,0,1-4.31-1.46,4.75,4.75,0,0,1-1.82-3.91V.27h3.77V10.51A1.59,1.59,0,0,0,22.34,11.89Z"></path> <path class="cls-1" d="M39.24,12.25h2v3.47H33.37V12.25h2V3.71H33.53V.27h7.53V3.71H39.24Z"></path> <path class="cls-1" d="M55.31.27v.6L49,12.18h6.4v3.53H43v-.6L49.35,3.8H43.61V.27Z"></path> <path class="cls-1" d="M79.68,4.51A8.61,8.61,0,0,1,80.36,8a8.68,8.68,0,0,1-.68,3.51A6.93,6.93,0,0,1,77.88,14a8.1,8.1,0,0,1-2.54,1.48,8.38,8.38,0,0,1-5.8,0A8.1,8.1,0,0,1,67,14a6.91,6.91,0,0,1-1.8-2.53A8.68,8.68,0,0,1,64.51,8a8.6,8.6,0,0,1,.68-3.5A6.94,6.94,0,0,1,67,2,8.1,8.1,0,0,1,69.53.52a8.37,8.37,0,0,1,5.8,0A8.1,8.1,0,0,1,77.88,2,7,7,0,0,1,79.68,4.51ZM68.57,8a4.53,4.53,0,0,0,.57,2.33,3.55,3.55,0,0,0,1.43,1.42,4.16,4.16,0,0,0,3.73,0,3.55,3.55,0,0,0,1.43-1.42A4.53,4.53,0,0,0,76.32,8a4.49,4.49,0,0,0-.57-2.31,3.48,3.48,0,0,0-1.43-1.41,4.26,4.26,0,0,0-3.73,0,3.48,3.48,0,0,0-1.43,1.41A4.49,4.49,0,0,0,68.57,8Z"></path> <path class="cls-1" d="M94,15.74,86.23,8.12v7.59H82.15V.2h1.43L91.4,7.84V.27h4V15.74Z"></path> </g> </g> </svg> 